#!OML:ASF H:\Terrain\Patient Classification 1\Walking\liu\liu.ASF
:FULLY-SPECIFIED
:DEGREES
225
root 9.28201 16.8284 0.510455 6.17772 4.45469 4.4567
lowerback -5.08563 -3.94972 -6.42485
upperback -0.263279 -4.95817 2.11976
thorax 3.31323 -2.58742 5.38819
lowerneck -23.2804 -3.55791 -11.0134
upperneck 22.6863 -3.91864 10.4556
head 11.7168 -1.38967 5.1204
rclavicle 7.70291e-015 9.54166e-015
rhumerus -51.2347 10.0739 -84.7991
rradius 30.4738
rwrist -17.1333
rhand -27.278 -27.5826
rfingers 7.12502
rthumb -0.688623 -57.5612
lclavicle 7.70291e-015 9.54166e-015
lhumerus -6.0339 -29.0164 81.8933
lradius 35.792
lwrist 9.64973
lhand -14.5044 -26.3568
lfingers 7.12502
lthumb 11.6427 3.29977
rfemur -38.2001 3.90691 14.5455
rtibia 30.9456
rfoot -19.1312 -9.82511
rtoes -13.2599
lfemur 9.21824 1.89533 -28.6201
ltibia 4.77083e-014
lfoot -11.6487 -0.546529
ltoes 4.75704
226
root 9.28089 16.8239 0.6917 6.24271 4.62261 4.65294
lowerback -5.11971 -4.07325 -6.65753
upperback -0.307082 -5.10759 2.10443
thorax 3.32751 -2.66454 5.48635
lowerneck -23.1744 -3.55348 -10.9989
upperneck 22.6838 -3.92324 10.4335
head 11.6951 -1.39586 5.10754
rclavicle -4.72114e-015 1.27222e-014
rhumerus -51.4884 9.82762 -84.2852
rradius 30.1617
rwrist -15.9366
rhand -27.3791 -26.7544
rfingers 7.12502
rthumb -0.78625 -56.7327
lclavicle -4.72114e-015 1.27222e-014
lhumerus -5.41387 -28.4839 81.544
lradius 36.4412
lwrist 9.18221
lhand -13.7234 -27.2726
lfingers 7.12502
lthumb 12.3958 2.33989
rfemur -38.653 5.4012 13.363
rtibia 29.4119
rfoot -19.4084 -9.92902
rtoes -15.5058
lfemur 9.86271 2.08971 -28.6797
ltibia -4.45278e-014
lfoot -12.2817 -0.974893
ltoes 5.09825
227
root 9.27347 16.8108 0.872347 6.38719 4.80705 4.68638
lowerback -5.17961 -4.19262 -6.71622
upperback -0.401488 -5.26184 2.12787
thorax 3.29292 -2.73864 5.52698
lowerneck -23.3294 -3.57601 -11.1231
upperneck 22.9886 -3.95087 10.5619
head 11.8513 -1.40217 5.18864
rclavicle -2.07233e-014 9.54166e-015
rhumerus -51.6157 8.90428 -83.3632
rradius 29.5141
rwrist -14.2887
rhand -27.8191 -23.8623
rfingers 7.12502
rthumb -1.21122 -53.8386
lclavicle -2.07233e-014 9.54166e-015
lhumerus -4.87429 -28.1693 81.1973
lradius 37.1108
lwrist 9.27823
lhand -12.6855 -28.7236
lfingers 7.12502
lthumb 13.3963 0.825733
rfemur -39.3678 7.59084 11.9715
rtibia 28.2803
rfoot -20.0419 -10.59
rtoes -16.9061
lfemur 10.3948 2.27152 -28.5916
ltibia -9.54166e-015
lfoot -12.7307 -1.11048
ltoes 3.90947
228
root 9.26328 16.7998 1.05208 6.557 5.12969 4.71319
lowerback -5.29838 -4.33099 -6.70467
upperback -0.45596 -5.43887 2.09243
thorax 3.32434 -2.82545 5.45778
lowerneck -23.3848 -3.597 -11.2081
upperneck 23.2033 -4.00373 10.7179
head 11.9578 -1.41441 5.26551
rclavicle 4.79071e-014 1.59028e-015
rhumerus -51.8884 8.12398 -82.8957
rradius 29.1402
rwrist -14.0162
rhand -28.7524 -20.4831
rfingers 7.12502
rthumb -2.11255 -50.4524
lclavicle 4.79071e-014 1.59028e-015
lhumerus -4.08926 -28.2628 80.668
lradius 37.5755
lwrist 9.90238
lhand -12.4262 -29.2602
lfingers 7.12502
lthumb 13.6462 0.272428
rfemur -40.2007 10.1737 10.2236
rtibia 27.4259
rfoot -20.9739 -11.6874
rtoes -15.6056
lfemur 10.9 2.3128 -28.4721
ltibia 3.49861e-014
lfoot -13.0641 -1.20982
ltoes 2.66902
229
root 9.25784 16.7874 1.23571 6.62478 5.40082 4.87134
lowerback -5.33473 -4.45292 -6.79341
upperback -0.49553 -5.59193 2.01716
thorax 3.32684 -2.90093 5.41058
lowerneck -23.1574 -3.50188 -11.1793
upperneck 23.1776 -3.91413 10.7589
head 11.8916 -1.37169 5.28884
rclavicle 7.10158e-014 -7.95139e-015
rhumerus -52.2723 7.89094 -82.9173
rradius 28.7272
rwrist -14.7181
rhand -30.3163 -17.876
rfingers 7.12502
rthumb -3.6229 -47.825
lclavicle 7.10158e-014 -7.95139e-015
lhumerus -3.40807 -28.4297 80.2249
lradius 37.9663
lwrist 10.2329
lhand -13.0111 -28.802
lfingers 7.12502
lthumb 13.0825 0.767652
rfemur -40.989 12.6927 8.29417
rtibia 26.7766
rfoot -22.2043 -12.5758
rtoes -15.9314
lfemur 11.5453 2.40485 -28.4775
ltibia 3.49861e-014
lfoot -13.4177 -1.35213
ltoes 2.18767
230
root 9.252 16.7601 1.43068 6.60049 5.39493 4.9559
lowerback -5.44398 -4.46707 -6.85238
upperback -0.448106 -5.5969 1.96149
thorax 3.43842 -2.90841 5.37425
lowerneck -23.0548 -3.42021 -11.1828
upperneck 23.1646 -3.83175 10.8464
head 11.8574 -1.32625 5.33634
rclavicle 4.09496e-014 1.19271e-014
rhumerus -52.5367 7.90561 -82.9776
rradius 28.1595
rwrist -14.7632
rhand -31.3185 -17.9101
rfingers 7.12502
rthumb -4.59067 -47.8403
lclavicle 4.09496e-014 1.19271e-014
lhumerus -2.71724 -29.1653 79.6544
lradius 38.5646
lwrist 10.9603
lhand -13.4251 -28.2618
lfingers 7.12502
lthumb 12.6834 1.33305
rfemur -41.6968 15.002 6.71176
rtibia 26.3728
rfoot -23.6228 -13.2954
rtoes -18.1753
lfemur 12.3315 2.78268 -28.3956
ltibia 4.13472e-014
lfoot -13.7856 -1.57025
ltoes 1.17441
231
root 9.24054 16.7249 1.62414 6.66631 5.44592 5.14629
lowerback -5.48995 -4.5535 -7.14047
upperback -0.499813 -5.69263 1.97007
thorax 3.45359 -2.9596 5.53197
lowerneck -22.9403 -3.43207 -11.2607
upperneck 23.1458 -3.83587 10.8615
head 11.8305 -1.33608 5.35309
rclavicle -9.29318e-015 1.27222e-014
rhumerus -52.9234 8.25578 -82.9213
rradius 28.0315
rwrist -14.4507
rhand -31.1304 -19.2013
rfingers 7.12502
rthumb -4.40906 -49.1354
lclavicle -9.29318e-015 1.27222e-014
lhumerus -2.22005 -30.0621 79.156
lradius 39.2021
lwrist 11.9168
lhand -13.7856 -27.9124
lfingers 7.12502
lthumb 12.3358 1.70364
rfemur -42.22 16.1965 5.65708
rtibia 26.1237
rfoot -24.7568 -13.621
rtoes -17.1875
lfemur 13.014 3.07569 -28.3876
ltibia -6.36111e-015
lfoot -14.0351 -1.90097
ltoes -0.440313
232
root 9.23062 16.6941 1.81071 6.74857 5.53594 5.52713
lowerback -5.37312 -4.66813 -7.5792
upperback -0.626539 -5.82997 1.94933
thorax 3.31833 -3.02588 5.75421
lowerneck -22.8395 -3.49802 -11.4116
upperneck 23.1138 -3.87478 10.83
head 11.8066 -1.37371 5.35777
rclavicle -2.26615e-014 -1.35174e-014
rhumerus -53.0264 7.79941 -82.0936
rradius 27.8289
rwrist -13.8828
rhand -31.4552 -20.5398
rfingers 7.12502
rthumb -4.7227 -50.4672
lclavicle -2.26615e-014 -1.35174e-014
lhumerus -2.08105 -30.1818 79.0924
lradius 39.7455
lwrist 12.3936
lhand -14.056 -27.699
lfingers 7.12502
lthumb 12.0751 1.93263
rfemur -42.3367 15.7234 5.43066
rtibia 25.8991
rfoot -24.8233 -13.2265
rtoes -16.5731
lfemur 13.661 3.30741 -28.568
ltibia 2.8625e-014
lfoot -14.2997 -2.23465
ltoes -0.947355
233
root 9.22586 16.6674 2.00323 6.69532 5.44672 5.51083
lowerback -5.3124 -4.64262 -7.4952
upperback -0.648048 -5.80571 1.93837
thorax 3.24831 -3.00937 5.70444
lowerneck -22.9402 -3.54344 -11.4242
upperneck 23.247 -3.90237 10.7229
head 11.879 -1.39977 5.31996
rclavicle -2.5842e-014 -4.77083e-015
rhumerus -52.8134 6.77311 -81.061
rradius 27.165
rwrist -13.2232
rhand -32.1006 -20.4689
rfingers 7.12502
rthumb -5.34586 -50.3814
lclavicle -2.5842e-014 -4.77083e-015
lhumerus -2.07014 -29.2276 79.3266
lradius 40.205
lwrist 12.1891
lhand -14.0664 -27.9749
lfingers 7.12502
lthumb 12.0651 1.65732
rfemur -42.1723 14.4652 6.34162
rtibia 25.7949
rfoot -24.1034 -12.3449
rtoes -17.4112
lfemur 14.4394 3.7627 -28.3029
ltibia -2.54444e-014
lfoot -14.4856 -2.71279
ltoes -0.624526
